<?xml version="1.0" encoding="utf-8"?>
<svg width="480.933" height="480.933" id="screenshot-d2bc9023-5e82-80a4-8001-9c425578baf0" viewBox="-5 -5 480.933 480.933" style="-webkit-print-color-adjust: exact;" fill="none" version="1.1" xmlns="http://www.w3.org/2000/svg" xmlns:bx="https://boxy-svg.com">
  <defs>
    <bx:guide x="265.332" y="76.872" angle="0"/>
    <bx:guide x="333.816" y="80.476" angle="0"/>
    <bx:guide x="191.698" y="300.861" angle="90"/>
    <bx:guide x="272.541" y="100.043" angle="90"/>
  </defs>
  <rect width="374.544" height="374.544" style="fill: rgb(0, 125, 75);" transform="matrix(0.707107, 0.707107, -0.707107, 0.707107, 235.157318, -29.685383)" rx="68.009" ry="68.009"/>
  <path d="M 186.708 396.538 L 127.165 336.995 L 52.263 262.093 C 38.034 247.864 38.034 224.797 52.263 210.569 L 184.27 78.303 C 184.27 78.303 197.299 71.627 197.298 82.705 C 197.295 128.868 197.295 256.627 197.295 344.583 C 197.295 383.203 30.588 274.061 235.303 235.136 C 439.357 196.338 271.349 89.574 271.349 127.432 C 271.349 152.835 271.349 190.713 271.349 230.537 C 271.349 293.397 271.349 361.104 271.359 392.254 C 271.363 403.3 284.552 396.489 284.552 396.489 L 418.053 262.093 C 432.281 247.864 432.281 224.797 418.053 210.569 L 327.333 119.849 L 279.232 71.748" style="stroke-linecap: round; stroke-linejoin: round; stroke: rgb(255, 255, 255); paint-order: fill; stroke-width: 13px;"/>
</svg>